<?xml version="1.0" standalone="no"?>
<!DOCTYPE svg PUBLIC "-//W3C//DTD SVG 20010904//EN"
 "http://www.w3.org/TR/2001/REC-SVG-20010904/DTD/svg10.dtd">
<svg version="1.0" xmlns="http://www.w3.org/2000/svg"
 width="400.000000pt" height="400.000000pt" viewBox="0 0 400.000000 400.000000"
 preserveAspectRatio="xMidYMid meet">
<metadata>
Created by potrace 1.14, written by Peter Selinger 2001-2017
</metadata>
<g transform="translate(0.000000,400.000000) scale(0.100000,-0.100000)"
fill="#000000" stroke="none">
<path d="M1360 3335 l0 -455 -530 0 -530 0 0 -645 0 -645 365 0 c201 0 365 3
365 6 0 4 -11 37 -25 75 -44 122 -58 227 -52 394 4 124 9 166 31 240 110 371
388 644 755 743 86 23 115 26 266 26 142 -1 183 -4 247 -22 320 -88 560 -279
698 -557 77 -155 101 -251 107 -430 6 -167 -8 -271 -52 -394 -14 -38 -25 -71
-25 -75 0 -3 164 -6 365 -6 l365 0 0 645 0 645 -530 0 -530 0 0 455 0 455
-645 0 -645 0 0 -455z"/>
<path d="M1875 2865 c-412 -64 -725 -426 -725 -835 0 -226 200 -660 564 -1225
97 -152 261 -392 281 -413 10 -12 30 12 112 130 217 311 410 628 540 885 218
429 254 615 171 873 -101 313 -362 536 -686 585 -114 17 -149 17 -257 0z m205
-345 c224 -42 378 -260 340 -479 -23 -133 -117 -259 -235 -317 -56 -27 -68
-29 -175 -29 -108 0 -119 2 -180 31 -128 61 -208 161 -236 295 -61 290 196
554 486 499z"/>
</g>
</svg>
